#!OML:ASF F:\VICON\USERDATA\INSTALL\rory3\rory3.ASF
:FULLY-SPECIFIED
:DEGREES
140
root 0.6368490956539072 17.680997397195437 64.17338195335105 -0.9305083288745393 -1.9521740138266526 -2.403101741080187
lfemur -12.644343426780019 -1.8087761931677708 -17.82109519891316
ltibia 29.146377772134155
lfoot -11.729064973732198 1.3012432509260075
ltoes -4.933021589519856
rfemur -16.35332884340941 4.767881281096528 24.34311795711782
rtibia 38.02105842384842
rfoot -1.8720410392259055 -11.308587021645991
rtoes 5.326848958271017
lowerback 10.787070088207253 0.32762654239820294 1.5639655255240874
upperback -0.46622921113175975 0.8476747291937008 1.8898275546415833
thorax -6.256295725630873 0.41080132431764527 1.1664273572849215
lowerneck -16.28202450213595 -3.146721079705796 -3.3474219177402267
upperneck 22.115942972903333 -3.8809229234239524 1.726123571402009
head 9.681562864805034 -1.86396657934121 0.7450199292855048
lclavicle -2.0262810681018118e-15 -7.116355441266407e-16
lhumerus -30.769929689952722 1.7456782262686086 79.83616903121579
lradius 26.132029949601858
lwrist 4.726930058271668
lhand -28.43280365226352 19.761783030733877
lfingers 7.12502
lthumb -1.7658791646306455 49.86221565780416
rclavicle -2.0282416055479476e-15 -7.128727766520814e-16
rhumerus -30.486626301303016 -21.976042927091918 -75.06551930818416
rradius 20.633546500504373
rwrist 6.155628930626422
rhand -17.84266028904208 22.13023622150849
rfingers 7.12502
rthumb 7.808485816462653 -7.650853695555231
141
root 0.6254291437589291 17.686093328023713 63.894107968900585 -0.8706021298941593 -2.1402084951585696 -2.563713759210505
lfemur -12.781252830978001 -1.7619724181764598 -17.78932390198605
ltibia 28.90264498897473
lfoot -10.979431779076343 0.7501832268204192
ltoes -7.008572589482283
rfemur -16.65118189309872 4.803293078937942 24.589146385425146
rtibia 37.71253269254843
rfoot -2.8087036160190806 -11.015908406061325
rtoes 3.6061041186930414
lowerback 10.849755749646986 0.3734041254314092 1.6807986597812277
upperback -0.47418015003625735 0.9115240370341047 1.9319990693414413
thorax -6.314175456229066 0.44328698562562874 1.0112796650647313
lowerneck -16.299922528373866 -3.1523183054611184 -3.344450742312351
upperneck 22.059361743743075 -3.8998678365932777 1.768429066671368
head 9.659388355265063 -1.8677752680113089 0.7593895188704225
lclavicle -2.0254314968908664e-15 -7.110935317335658e-16
lhumerus -30.290341717614986 1.3009573477843284 79.86564100978089
lradius 27.01851516508142
lwrist 5.369227289363661
lhand -28.53394242526141 19.689455084936032
lfingers 7.12502
lthumb -1.8541847972037013 49.879071248484365
rclavicle -2.0281926948224904e-15 -7.12841571198407e-16
rhumerus -30.740991466751318 -22.05974538858038 -75.10623062638157
rradius 20.633628723653487
rwrist 6.266265153187511
rhand -17.879259147821827 22.184988961933566
rfingers 7.12502
rthumb 7.784131871183725 -7.760017979652121
142
root 0.6156958787248611 17.666050944023905 63.65901415606646 -0.8983115557017056 -2.370082759118049 -2.763301111071854
lfemur -12.88680955684194 -1.534245481332334 -17.801938141998164
ltibia 29.22660701413791
lfoot -10.451126394665172 0.33157907272238507
ltoes -8.921010526850338
rfemur -16.713550376823385 4.777262986168472 24.90764613852175
rtibia 37.48320798031498
rfoot -3.86812720410399 -10.762819591182934
rtoes 2.501458336350933
lowerback 10.966459084592868 0.44163469627217233 1.8465036703926563
upperback -0.4395623905556053 1.0413669120978866 1.9624449843855745
thorax -6.373864096336081 0.49902347988678236 0.8134713132532241
lowerneck -16.296611812270083 -3.144522192677144 -3.327111896416551
upperneck 21.99170032142139 -3.8893859418904926 1.7678323858182314
head 9.640372248614238 -1.8620778069739499 0.759475497135675
lclavicle -2.0252765644849916e-15 -7.10995879093147e-16
lhumerus -29.814424533264166 0.7610739554899375 80.04469649101246
lradius 27.890615463132082
lwrist 5.714219568783832
lhand -28.67021646443832 19.669055818185303
lfingers 7.12502
lthumb -1.9760675276775888 49.93552546471879
rclavicle -2.0277809589919105e-15 -7.125786777921924e-16
rhumerus -30.953753828763645 -22.24741532034637 -75.08171367586165
rradius 20.567006270595012
rwrist 6.404497487103303
rhand -17.8865514782581 22.238817969339205
rfingers 7.12502
rthumb 7.847257024589029 -7.51927027966077
143
root 0.608711122938908 17.65062385502395 63.378302546235 -0.9058774958713496 -2.747641815976619 -2.8043106636366066
lfemur -13.019866851737 -1.233846743690071 -17.964839712061824
ltibia 29.260032020846438
lfoot -9.859033874211239 -0.23298425434250447
ltoes -11.026321369340469
rfemur -16.607589162092477 4.9390790762357835 25.088355567358597
rtibia 37.1517552452464
rfoot -5.1000707802190695 -10.397222094635437
rtoes 1.8452389834328746
lowerback 11.011822396437294 0.5757547160208234 1.8120468248767756
upperback -0.38342061125324856 1.2205048172760924 1.9556165142918025
thorax -6.350299219090872 0.5923413294649703 0.6169850807105903
lowerneck -16.325525599431394 -3.1405566867193175 -3.290976142067346
upperneck 22.000768337605432 -3.8831292814180567 1.761787145624466
head 9.65313524405995 -1.8603019770559126 0.7533651169679194
lclavicle -2.0263178644117225e-15 -7.116590026028222e-16
lhumerus -29.339578987031516 0.43654933347753166 80.20404334034423
lradius 28.72412192116727
lwrist 5.904732756490085
lhand -28.89306073547557 19.62174466316622
lfingers 7.12502
lthumb -2.220253607028094 49.855203379853826
rclavicle -2.02741130202272e-15 -7.123426278035711e-16
rhumerus -31.05497884639123 -22.30061457094127 -75.10835777925378
rradius 20.486900302768596
rwrist 6.517191544274817
rhand -17.883552451064432 22.366403122578827
rfingers 7.12502
rthumb 7.917932256374416 -7.365271688422617
